<svg id="Camada_1" data-name="Camada 1" xmlns="http://www.w3.org/2000/svg" viewBox="0 0 1125 2436"><defs><style>.cls-1{opacity:0.2;}.cls-10,.cls-11,.cls-12,.cls-13,.cls-14,.cls-15,.cls-16,.cls-17,.cls-18,.cls-19,.cls-2,.cls-20,.cls-21,.cls-22,.cls-23,.cls-28,.cls-3,.cls-4,.cls-5,.cls-6,.cls-7,.cls-8,.cls-9{fill:none;stroke:#fff;stroke-miterlimit:10;}.cls-2{stroke-width:1.17px;}.cls-3{stroke-width:1.16px;}.cls-4{stroke-width:1.16px;}.cls-5{stroke-width:1.16px;}.cls-6{stroke-width:1.16px;}.cls-7{stroke-width:1.15px;}.cls-8{stroke-width:1.15px;}.cls-9{stroke-width:1.15px;}.cls-10{stroke-width:1.15px;}.cls-11{stroke-width:1.14px;}.cls-12{stroke-width:1.14px;}.cls-13{stroke-width:1.14px;}.cls-14{stroke-width:1.13px;}.cls-15{stroke-width:1.13px;}.cls-16{stroke-width:1.13px;}.cls-17{stroke-width:1.13px;}.cls-18{stroke-width:1.12px;}.cls-19{stroke-width:1.12px;}.cls-20{stroke-width:1.12px;}.cls-21{stroke-width:1.12px;}.cls-22{stroke-width:1.11px;}.cls-23{stroke-width:1.11px;}.cls-24{font-size:41.02px;font-family:MS-UIGothic, MS UI Gothic;}.cls-24,.cls-27{fill:#fff;}.cls-25,.cls-26{fill:#ae2eff;}.cls-26{font-size:75px;}</style></defs><rect x="0.5" y="0.5" width="1125" height="2436"/><g class="cls-1"><path class="cls-2" d="M50.5,2654.61c48.91-86.74,122.15-175.73,245.89-210.75,43.59-12.34,90.67-17.05,136.43-24.66,151.09-25.11,298.43-89.8,354.79-190.85,20.53-36.82,28.06-76.41,39.34-115.13,29.22-100.33,87.75-200,195-269.81,100.83-65.68,239.9-102.28,321.18-180.05,41.3-39.53,64.24-86.71,86.59-133.07q48.93-101.54,97.87-203"/><path class="cls-3" d="M29.08,2613.39c49.22-85.91,123-174,247.51-208.72,43.88-12.22,91.27-16.89,137.33-24.42,152.09-24.87,300.4-88.94,357.13-189,20.67-36.46,28.24-75.67,39.6-114,29.42-99.36,88.33-198,196.26-267.21,101.5-65,241.48-101.29,323.3-178.31,41.57-39.14,64.67-85.86,87.16-131.78l98.52-201.09"/><path class="cls-4" d="M7.65,2572.16c49.55-85.07,123.76-172.34,249.14-206.68,44.16-12.1,91.87-16.72,138.23-24.18,153.08-24.63,302.37-88.07,359.47-187.17,20.81-36.1,28.43-74.93,39.86-112.9,29.61-98.4,88.92-196.11,197.55-264.61,102.16-64.41,243.07-100.3,325.42-176.58,41.85-38.75,65.09-85,87.73-130.5q49.59-99.55,99.17-199.13"/><path class="cls-5" d="M-13.78,2530.94C36.1,2446.71,110.79,2360.29,237,2326.29c44.45-12,92.46-16.56,139.12-23.94C530.2,2278,680.46,2215.14,737.93,2117c20.94-35.75,28.62-74.19,40.12-111.79,29.81-97.43,89.5-194.18,198.84-262,102.83-63.78,244.65-99.32,327.54-174.84,42.12-38.38,65.52-84.19,88.31-129.22L1492.55,1242"/><path class="cls-6" d="M-35.2,2489.71C15,2406.32,90.17,2320.76,217.18,2287.1c44.74-11.86,93.07-16.4,140-23.71,155.09-24.13,306.32-86.33,364.16-183.48,21.08-35.39,28.81-73.46,40.38-110.68,30-96.46,90.08-192.25,200.13-259.4,103.49-63.14,246.23-98.32,329.66-173.1,42.39-38,65.94-83.35,88.88-127.93l100.46-195.21"/><path class="cls-7" d="M-56.63,2448.49c50.52-82.56,126.18-167.25,254-200.58,45-11.74,93.67-16.23,140.93-23.47C494.39,2200.55,646.6,2139,704.82,2042.8c21.21-35,29-72.72,40.64-109.57,30.19-95.49,90.65-190.31,201.41-256.79,104.16-62.51,247.82-97.34,331.78-171.36,42.67-37.62,66.37-82.52,89.45-126.65l101.11-193.25"/><path class="cls-8" d="M-78,2407.26c50.84-81.72,127-165.55,255.63-198.54,45.32-11.62,94.26-16.07,141.83-23.23,157.08-23.65,310.26-84.6,368.85-179.8,21.35-34.68,29.17-72,40.9-108.46,30.38-94.52,91.23-188.38,202.7-254.18,104.82-61.88,249.4-96.36,333.9-169.63,42.94-37.23,66.79-81.68,90-125.36l101.75-191.29"/><path class="cls-9" d="M-99.48,2366c51.17-80.88,127.79-163.86,257.26-196.51,45.6-11.51,94.86-15.9,142.73-23,158.08-23.41,312.23-83.74,371.19-178,21.49-34.33,29.36-71.24,41.16-107.35,30.58-93.55,91.81-186.45,204-251.58,105.49-61.24,251-95.36,336-167.88,43.21-36.85,67.21-80.85,90.6-124.08l102.39-189.33"/><path class="cls-10" d="M-120.9,2324.81c51.48-80,128.59-162.16,258.88-194.47,45.89-11.39,95.46-15.74,143.63-22.76,159.07-23.16,314.2-82.87,373.53-176.1,21.62-34,29.55-70.52,41.42-106.25,30.77-92.58,92.4-184.52,205.28-249,106.15-60.61,252.57-94.38,338.14-166.15,43.49-36.47,67.64-80,91.17-122.79q51.52-93.69,103-187.37"/><path class="cls-11" d="M-142.33,2283.59c51.81-79.21,129.4-160.47,260.51-192.44,46.18-11.27,96-15.57,144.53-22.52,160.07-22.92,316.17-82,375.88-174.26,21.75-33.63,29.72-69.78,41.67-105.13,31-91.62,93-182.6,206.57-246.37,106.82-60,254.15-93.4,340.26-164.41,43.76-36.09,68.06-79.17,91.74-121.51q51.86-92.7,103.69-185.41"/><path class="cls-12" d="M-163.76,2242.36C-111.62,2164-33.54,2083.59,98.37,2052c46.47-11.15,96.66-15.41,145.44-22.28C404.88,2007,562,1948.54,622,1857.26c21.89-33.27,29.91-69,41.94-104,31.15-90.65,93.55-180.66,207.85-243.77,107.48-59.34,255.74-92.4,342.38-162.67,44-35.71,68.49-78.33,92.32-120.22q52.15-91.72,104.33-183.45"/><path class="cls-13" d="M-185.18,2201.14c52.46-77.53,131-157.07,263.75-188.38,46.76-11,97.26-15.24,146.34-22C387,1968.29,545,1910.46,605.47,1820.15c22-32.91,30.1-68.3,42.2-102.91,31.35-89.68,94.13-178.73,209.14-241.16,108.15-58.71,257.32-91.42,344.5-160.93,44.31-35.33,68.91-77.5,92.89-118.94l105-181.49"/><path class="cls-14" d="M-206.61,2159.91c52.78-76.69,131.83-155.37,265.38-186.34,47-10.9,97.86-15.07,147.24-21.79,163.06-22.2,322.08-79.41,382.9-168.74,22.16-32.56,30.29-67.56,42.46-101.8,31.54-88.71,94.71-176.8,210.43-238.56,108.82-58.07,258.91-90.43,346.63-159.19,44.57-34.94,69.33-76.66,93.45-117.65l105.63-179.53"/><path class="cls-15" d="M-228,2118.69c53.1-75.86,132.63-153.68,267-184.31,47.33-10.78,98.45-14.91,148.14-21.56,164.06-22,324.05-78.53,385.24-166.89,22.3-32.2,30.47-66.83,42.72-100.69,31.74-87.73,95.29-174.87,211.72-236,109.48-57.44,260.49-89.44,348.75-157.46,44.84-34.56,69.75-75.82,94-116.36L1375.84,957.9"/><path class="cls-16" d="M-249.46,2077.46c53.43-75,133.44-152,268.63-182.27,47.62-10.66,99.05-14.74,149-21.32,165.06-21.71,326-77.67,387.59-165,22.43-31.85,30.65-66.09,43-99.58,31.93-86.76,95.87-172.94,213-233.34,110.15-56.81,262.07-88.46,350.87-155.72,45.12-34.18,70.18-75,94.6-115.08l106.92-175.61"/><path class="cls-17" d="M-270.88,2036.24C-217.13,1962.06-136.64,1886-.64,1856c47.91-10.55,99.66-14.58,149.94-21.08,166.06-21.47,328-76.8,389.94-163.21,22.57-31.49,30.84-65.35,43.24-98.46,32.12-85.8,96.45-171,214.29-230.75,110.81-56.17,263.66-87.46,353-154,45.39-33.79,70.6-74.14,95.17-113.8q53.77-86.82,107.57-173.64"/><path class="cls-18" d="M-292.31,1995c54.07-73.34,135.05-148.59,271.87-178.2,48.2-10.43,100.25-14.41,150.84-20.84,167.06-21.23,330-75.94,392.28-161.37,22.71-31.14,31-64.61,43.5-97.35,32.31-84.83,97-169.08,215.58-228.14,111.48-55.54,265.24-86.48,355.11-152.24,45.66-33.42,71-73.31,95.74-112.52l108.21-171.68"/><path class="cls-19" d="M-313.74,1953.79c54.4-72.51,135.86-146.89,273.5-176.17C8.24,1767.31,60.61,1763.37,111.5,1757c168.06-21,331.94-75.06,394.62-159.52,22.84-30.78,31.21-63.88,43.76-96.24,32.51-83.86,97.61-167.15,216.87-225.53,112.14-54.91,266.82-85.5,357.23-150.51,45.94-33,71.45-72.47,96.31-111.23l108.86-169.72"/><path class="cls-20" d="M-335.16,1912.56c54.72-71.67,136.66-145.19,275.12-174.13,48.77-10.19,101.45-14.09,152.64-20.37,169-20.74,333.91-74.2,397-157.68,23-30.43,31.39-63.14,44-95.13,32.7-82.89,98.19-165.22,218.16-222.93,112.81-54.26,268.41-84.5,359.35-148.76,46.21-32.66,71.88-71.64,96.89-109.95l109.5-167.76"/><path class="cls-21" d="M-356.59,1871.34c55-70.83,137.47-143.5,276.75-172.1,49.06-10.07,102-13.92,153.54-20.13,170.05-20.5,335.88-73.33,399.31-155.84,23.11-30.07,31.58-62.4,44.27-94,32.9-81.92,98.77-163.29,219.45-220.32,113.47-53.63,270-83.52,361.47-147,46.48-32.27,72.3-70.8,97.46-108.66l110.15-165.81"/><path class="cls-22" d="M-378,1830.12c55.36-70,138.28-141.81,278.37-170.07,49.34-10,102.64-13.76,154.44-19.89,171.05-20.26,337.85-72.47,401.65-154,23.25-29.71,31.77-61.66,44.54-92.91,33.08-81,99.34-161.35,220.73-217.71,114.14-53,271.58-82.54,363.59-145.29,46.76-31.89,72.73-70,98-107.38L1294.14,759"/><path class="cls-23" d="M-399.44,1788.89c55.69-69.16,139.09-140.11,280-168C-69.81,1611-16.2,1607.27,35.9,1601.2c172-20,339.82-71.59,404-152.15,23.38-29.36,31.95-60.92,44.8-91.79,33.28-80,99.93-159.43,222-215.12,114.81-52.36,273.16-81.54,365.71-143.55,47-31.51,73.15-69.12,98.6-106.09l111.45-161.89"/></g><text class="cls-24" transform="translate(117.57 361.17)">MENU<tspan class="cls-25" x="106.24" y="0"> </tspan><tspan class="cls-26" x="118.74" y="0">:</tspan></text><text class="cls-24" transform="translate(117.57 625.17)">SOBRE</text><text class="cls-24" transform="translate(117.57 755.17)">AVALIAR</text><text class="cls-24" transform="translate(117.57 885.17)">TEMA ESCURO</text><text class="cls-24" transform="translate(117.57 1015.17)">NÍVEL</text><text class="cls-24" transform="translate(293.57 1015.17)"><tspan xml:space="preserve">&lt;   1   &gt;</tspan></text><rect class="cls-27" x="483.06" y="842.11" width="137.5" height="61" rx="30.5"/><circle cx="588.56" cy="872.61" r="27"/><polygon class="cls-27" points="374.73 716.96 381.34 730.34 396.11 732.49 385.42 742.9 387.94 757.61 374.73 750.67 361.52 757.61 364.04 742.9 353.36 732.49 368.13 730.34 374.73 716.96"/><polygon class="cls-27" points="430.73 716.96 437.34 730.34 452.11 732.49 441.42 742.9 443.94 757.61 430.73 750.67 417.52 757.61 420.04 742.9 409.36 732.49 424.13 730.34 430.73 716.96"/><polygon class="cls-27" points="486.73 716.96 493.34 730.34 508.11 732.49 497.42 742.9 499.94 757.61 486.73 750.67 473.52 757.61 476.04 742.9 465.36 732.49 480.13 730.34 486.73 716.96"/><polygon class="cls-27" points="542.73 716.96 549.34 730.34 564.11 732.49 553.42 742.9 555.94 757.61 542.73 750.67 529.52 757.61 532.04 742.9 521.36 732.49 536.13 730.34 542.73 716.96"/><polygon class="cls-27" points="598.73 716.96 605.34 730.34 620.11 732.49 609.42 742.9 611.94 757.61 598.73 750.67 585.52 757.61 588.04 742.9 577.36 732.49 592.13 730.34 598.73 716.96"/><line class="cls-28" x1="117.63" y1="629.87" x2="250.06" y2="630.11"/></svg>