<svg id="Camada_1" data-name="Camada 1" xmlns="http://www.w3.org/2000/svg" viewBox="0 0 1125 2436"><defs><style>.cls-1{opacity:0.2;}.cls-10,.cls-11,.cls-12,.cls-13,.cls-14,.cls-15,.cls-16,.cls-17,.cls-18,.cls-19,.cls-2,.cls-20,.cls-21,.cls-22,.cls-23,.cls-28,.cls-3,.cls-4,.cls-5,.cls-6,.cls-7,.cls-8,.cls-9{fill:none;stroke:#fff;stroke-miterlimit:10;}.cls-2{stroke-width:1.28px;}.cls-3{stroke-width:1.27px;}.cls-4{stroke-width:1.27px;}.cls-5{stroke-width:1.27px;}.cls-6{stroke-width:1.26px;}.cls-7{stroke-width:1.26px;}.cls-8{stroke-width:1.26px;}.cls-9{stroke-width:1.26px;}.cls-10{stroke-width:1.25px;}.cls-11{stroke-width:1.25px;}.cls-12{stroke-width:1.25px;}.cls-13{stroke-width:1.24px;}.cls-14{stroke-width:1.24px;}.cls-15{stroke-width:1.24px;}.cls-16{stroke-width:1.24px;}.cls-17{stroke-width:1.23px;}.cls-18{stroke-width:1.23px;}.cls-19{stroke-width:1.23px;}.cls-20{stroke-width:1.22px;}.cls-21{stroke-width:1.22px;}.cls-22{stroke-width:1.22px;}.cls-23{stroke-width:1.22px;}.cls-24,.cls-25,.cls-26{fill:#fff;}.cls-25{font-size:115.75px;}.cls-25,.cls-26,.cls-27{font-family:MS-UIGothic, MS UI Gothic;}.cls-26{font-size:41.02px;}.cls-27{font-size:30.86px;fill:#4f4e4e;}</style></defs><rect x="0.5" y="0.5" width="1125" height="2436"/><g class="cls-1"><path class="cls-2" d="M-17.57,1549C41,1462.26,128.6,1373.26,276.68,1338.24c52.17-12.33,108.51-17,163.26-24.65,180.81-25.11,357.13-89.81,424.57-190.85,24.57-36.82,33.58-76.41,47.08-115.13,35-100.33,105-200,233.32-269.82,120.66-65.68,287.08-102.27,384.34-180,49.43-39.52,76.88-86.7,103.63-133.07l117.12-203"/><path class="cls-3" d="M-43.21,1507.78c58.91-85.91,147.14-174,296.2-208.73,52.5-12.21,109.22-16.88,164.33-24.41,182-24.87,359.49-88.94,427.38-189,24.73-36.46,33.8-75.67,47.38-114,35.21-99.36,105.71-198,234.87-267.21,121.45-65,289-101.29,386.88-178.31,49.75-39.14,77.39-85.87,104.31-131.79L1736,193.21"/><path class="cls-4" d="M-68.85,1466.55c59.3-85.07,148.1-172.34,298.14-206.69,52.85-12.09,109.94-16.72,165.42-24.18,183.19-24.62,361.84-88.07,430.17-187.16,24.9-36.11,34-74.94,47.7-112.91C908,837.22,979,739.51,1109,671c122.25-64.42,290.87-100.31,389.42-176.58,50.07-38.76,77.89-85,105-130.5q59.32-99.57,118.67-199.13"/><path class="cls-5" d="M-94.49,1425.33c59.69-84.24,149.07-170.65,300.08-204.66,53.2-12,110.66-16.55,166.5-23.94,184.39-24.38,364.21-87.2,433-185.32,25.06-35.75,34.24-74.2,48-111.8,35.66-97.42,107.09-194.17,237.95-262,123-63.77,292.76-99.31,392-174.83,50.41-38.38,78.4-84.2,105.68-129.22L1708.1,136.39"/><path class="cls-6" d="M-120.13,1384.1c60.07-83.39,150-168.95,302-202.62,53.54-11.86,111.37-16.39,167.57-23.7C535.05,1133.64,716,1071.44,785.25,974.3c25.23-35.4,34.47-73.46,48.32-110.68,35.9-96.46,107.79-192.25,239.49-259.4,123.85-63.14,294.66-98.33,394.5-173.1,50.73-38,78.91-83.35,106.36-127.93L1694.13,108"/><path class="cls-7" d="M-145.77,1342.88c60.46-82.56,151-167.26,304-200.59,53.89-11.74,112.09-16.23,168.65-23.46,186.78-23.9,368.93-85.47,438.59-181.64,25.38-35,34.69-72.72,48.63-109.57,36.13-95.49,108.48-190.32,241-256.79,124.64-62.51,296.56-97.34,397-171.37,51.06-37.61,79.42-82.51,107-126.64l121-193.25"/><path class="cls-8" d="M-171.41,1301.65c60.85-81.72,152-165.56,305.92-198.55,54.22-11.62,112.8-16.06,169.72-23.22,188-23.66,371.29-84.61,441.39-179.8,25.55-34.69,34.91-72,49-108.46,36.36-94.52,109.17-188.39,242.57-254.19,125.44-61.87,298.45-96.35,399.57-169.62,51.38-37.23,79.92-81.68,107.73-125.36L1666.2,51.16"/><path class="cls-9" d="M-197,1260.43c61.23-80.89,152.93-163.86,307.86-196.52,54.57-11.5,113.52-15.9,170.8-23,189.17-23.41,373.65-83.73,444.2-178,25.71-34.33,35.13-71.25,49.25-107.35C811.65,662.07,884.93,569.17,1019.18,504c126.23-61.24,300.34-95.37,402.1-167.89,51.71-36.85,80.44-80.84,108.42-124.07L1652.23,22.75"/><path class="cls-10" d="M-222.68,1219.2c61.61-80,153.89-162.16,309.79-194.48C142,1013.34,201.35,1009,259,1002,449.36,978.8,635,919.1,706,825.86c25.87-34,35.35-70.51,49.56-106.24,36.82-92.58,110.56-184.52,245.65-249,127-60.61,302.25-94.38,404.65-166.15,52-36.47,80.94-80,109.1-122.79Q1576.61,88,1638.27-5.66"/><path class="cls-11" d="M-248.32,1178c62-79.21,154.85-160.47,311.74-192.45,55.26-11.26,115-15.57,173-22.51,191.55-22.93,378.36-82,449.8-174.27,26-33.62,35.58-69.77,49.88-105.13C773.11,592,847.31,501,983.25,437.25c127.83-60,304.14-93.39,407.19-164.41,52.36-36.08,81.44-79.17,109.78-121.5L1624.3-34.07"/><path class="cls-12" d="M-274,1136.75C-211.58,1058.38-118.14,978,39.72,946.34c55.61-11.14,115.67-15.4,174-22.27,192.75-22.69,380.72-81.14,452.61-172.43,26.19-33.26,35.79-69,50.18-104C753.84,557,828.5,467,965.29,403.86c128.62-59.34,306-92.41,409.72-162.67,52.69-35.71,82-78.33,110.47-120.23q62.43-91.71,124.85-183.44"/><path class="cls-13" d="M-299.6,1095.53C-236.83,1018-142.82,938.45,16,907.15c56-11,116.39-15.24,175.12-22,193.94-22.44,383.08-80.26,455.41-170.58,26.36-32.91,36-68.3,50.5-102.9C734.56,522,809.69,432.89,947.33,370.46c129.42-58.7,307.93-91.41,412.26-160.93,53-35.32,82.46-77.49,111.15-118.94L1596.37-90.89"/><path class="cls-14" d="M-325.24,1054.3C-262.08,977.61-167.49,898.92-7.67,868c56.29-10.91,117.1-15.08,176.19-21.8C363.66,824,554,766.76,626.74,677.42c26.52-32.55,36.24-67.56,50.81-101.79,37.74-88.71,113.34-176.8,251.81-238.56,130.22-58.07,309.83-90.43,414.8-159.19,53.34-34.95,83-76.66,111.84-117.66L1582.4-119.3"/><path class="cls-15" d="M-350.88,1013.08c63.55-75.86,158.71-153.68,319.51-184.31C25.27,818,86.45,813.86,145.91,807.21c196.33-22,387.79-78.54,461-166.9,26.69-32.2,36.47-66.82,51.12-100.68,38-87.74,114-174.87,253.36-235.95,131-57.44,311.72-89.44,417.34-157.46,53.67-34.56,83.48-75.82,112.52-116.37l127.17-177.57"/><path class="cls-16" d="M-376.52,971.85c63.93-75,159.68-152,321.45-182.27,57-10.67,118.54-14.75,178.36-21.32,197.52-21.72,390.15-77.67,463.82-165.06,26.84-31.84,36.68-66.08,51.43-99.57,38.21-86.77,114.73-172.94,254.9-233.35,131.81-56.8,313.62-88.45,419.87-155.71,54-34.18,84-75,113.21-115.09l128-175.61"/><path class="cls-17" d="M-402.16,930.63c64.32-74.19,160.65-150.29,323.4-180.24,57.33-10.55,119.25-14.58,179.43-21.09,198.72-21.47,392.51-76.8,466.62-163.21,27-31.49,36.91-65.34,51.74-98.46,38.44-85.8,115.43-171,256.45-230.74,132.6-56.17,315.51-87.47,422.41-154,54.32-33.8,84.49-74.15,113.89-113.8L1540.5-204.54"/><path class="cls-18" d="M-427.8,889.4c64.71-73.34,161.61-148.59,325.34-178.2,57.68-10.43,120-14.42,180.51-20.85C278,669.12,472.92,614.42,547.48,529c27.17-31.13,37.13-64.61,52-97.35,38.67-84.83,116.12-169.08,258-228.13C990.92,148,1174.92,117,1282.46,51.25c54.65-33.41,85-73.3,114.58-112.51l129.49-171.69"/><path class="cls-19" d="M-453.44,848.18c65.09-72.51,162.58-146.9,327.29-176.17,58-10.31,120.68-14.25,181.58-20.61,201.11-21,397.23-75.07,472.24-159.53C555,461.1,565,428,580,395.64c38.9-83.87,116.81-167.15,259.52-225.54C973.75,115.2,1158.86,84.61,1267,19.6c55-33,85.51-72.47,115.26-111.23l130.27-169.73"/><path class="cls-20" d="M-479.08,807c65.48-71.67,163.54-145.2,329.23-174.13,58.36-10.19,121.4-14.09,182.66-20.37,202.3-20.75,399.59-74.2,475-157.69,27.5-30.42,37.57-63.13,52.67-95.12C599.66,276.74,678,194.42,821.59,136.71c135-54.27,321.2-84.51,430-148.77,55.3-32.65,86-71.63,115.94-109.94l131-167.77"/><path class="cls-21" d="M-504.72,765.73c65.87-70.84,164.51-143.51,331.17-172.1C-114.84,583.56-51.43,579.7,10.2,573.5,213.69,553,412.14,500.16,488,417.65c27.65-30.06,37.79-62.39,53-94,39.36-81.93,118.2-163.29,262.61-220.32,135.79-53.64,323.09-83.52,432.56-147,55.63-32.27,86.53-70.8,116.63-108.66l131.82-165.81"/><path class="cls-22" d="M-530.36,724.5c66.25-70,165.47-141.8,333.12-170.06,59.05-10,122.83-13.76,184.82-19.9,204.69-20.26,404.3-72.46,480.64-154,27.82-29.71,38-61.66,53.3-92.9,39.59-81,118.89-161.36,264.14-217.72,136.59-53,325-82.53,435.11-145.29,56-31.89,87-70,117.31-107.37q66.29-81.93,132.59-163.85"/><path class="cls-23" d="M-556,683.28c66.64-69.16,166.44-140.11,335.06-168,59.4-9.84,123.55-13.6,185.9-19.66,205.88-20,406.66-71.6,483.45-152.16,28-29.35,38.23-60.92,53.6-91.79,39.83-80,119.59-159.43,265.69-215.11C905.09-15.84,1094.59-45,1205.34-107c56.28-31.51,87.54-69.13,118-106.09Q1390-294.06,1456.7-375"/></g><path class="cls-24" d="M91.56,675.38c11.64,19.19,44.94,76.76,44.94,76.76L104,770.3l119.49,13.61L269.82,681l-34.14,18.17-33.2-48.66S195,634.22,166.39,639l-109.5,4.1S79.92,656.2,91.56,675.38Z"/><path class="cls-24" d="M96.48,709.75,33.8,814.36,0,798V660.13c10.42-8.56,24.82-15.45,41.9-10.7C78,659.45,96.48,709.75,96.48,709.75Z"/><path class="cls-24" d="M266.46,945.49c-22.44-.1-88.93-1.81-88.93-1.81l1.52-37.21L105,1001.22l63.54,93.33,2.36-38.61,58.84-2.87s17.79,2.08,28.67-24.75l53.74-95.5S288.9,945.59,266.46,945.49Z"/><path class="cls-24" d="M318.87,848.81l-45.3-86.21-95.4,61,56.42,108.11s52.55,10.52,80-15S318.87,848.81,318.87,848.81Z"/><polygon class="cls-24" points="20.12 907.91 0 894.77 0 855.94 20.12 907.91"/><polygon class="cls-24" points="95.23 1062.8 0 1057.64 0 944.38 91.72 949.62 95.23 1062.8"/><text class="cls-25" transform="translate(382.13 848.13)">BRAIN<tspan x="0" y="138.9">RECYCLE</tspan></text><text class="cls-26" transform="translate(452.01 1750.56)">COMEÇAR</text><text class="cls-26" transform="translate(400.73 1848.56)">CONFIGURAÇÕES</text><text class="cls-27" transform="translate(490.78 2004.43)">CRÉDITOS</text><line class="cls-28" x1="480.25" y1="2014.5" x2="644.75" y2="2014.5"/></svg>