<svg id="Camada_1" data-name="Camada 1" xmlns="http://www.w3.org/2000/svg" viewBox="0 0 1146 384"><defs><style>.cls-1{opacity:0.2;}.cls-10,.cls-11,.cls-12,.cls-13,.cls-14,.cls-15,.cls-16,.cls-17,.cls-18,.cls-19,.cls-2,.cls-20,.cls-21,.cls-22,.cls-23,.cls-28,.cls-29,.cls-3,.cls-30,.cls-31,.cls-32,.cls-33,.cls-34,.cls-35,.cls-36,.cls-37,.cls-38,.cls-39,.cls-4,.cls-40,.cls-41,.cls-42,.cls-43,.cls-44,.cls-45,.cls-46,.cls-47,.cls-48,.cls-49,.cls-5,.cls-50,.cls-54,.cls-6,.cls-7,.cls-8,.cls-9{fill:none;stroke:#fff;stroke-miterlimit:10;}.cls-2{stroke-width:0.2px;}.cls-3{stroke-width:0.2px;}.cls-4{stroke-width:0.2px;}.cls-5{stroke-width:0.2px;}.cls-6{stroke-width:0.2px;}.cls-7{stroke-width:0.2px;}.cls-8{stroke-width:0.2px;}.cls-9{stroke-width:0.2px;}.cls-10{stroke-width:0.2px;}.cls-11{stroke-width:0.2px;}.cls-12{stroke-width:0.2px;}.cls-13{stroke-width:0.2px;}.cls-14{stroke-width:0.2px;}.cls-15{stroke-width:0.2px;}.cls-16{stroke-width:0.19px;}.cls-17{stroke-width:0.19px;}.cls-18{stroke-width:0.19px;}.cls-19{stroke-width:0.19px;}.cls-20{stroke-width:0.19px;}.cls-21{stroke-width:0.19px;}.cls-22{stroke-width:0.19px;}.cls-23{stroke-width:0.19px;}.cls-24,.cls-25,.cls-26,.cls-51,.cls-57,.cls-58,.cls-60,.cls-63,.cls-67{fill:#fff;}.cls-25{font-size:18.33px;}.cls-25,.cls-26,.cls-27,.cls-51,.cls-56,.cls-57,.cls-58,.cls-59,.cls-60,.cls-63,.cls-66,.cls-67,.cls-70,.cls-71{font-family:MS-UIGothic, MS UI Gothic;}.cls-26{font-size:6.5px;}.cls-27{font-size:4.89px;fill:#4f4e4e;}.cls-28{stroke-width:0.16px;}.cls-29{stroke-width:0.18px;}.cls-30{stroke-width:0.18px;}.cls-31{stroke-width:0.18px;}.cls-32{stroke-width:0.18px;}.cls-33{stroke-width:0.18px;}.cls-34{stroke-width:0.18px;}.cls-35{stroke-width:0.18px;}.cls-36{stroke-width:0.18px;}.cls-37{stroke-width:0.18px;}.cls-38{stroke-width:0.18px;}.cls-39{stroke-width:0.18px;}.cls-40{stroke-width:0.18px;}.cls-41{stroke-width:0.18px;}.cls-42{stroke-width:0.18px;}.cls-43{stroke-width:0.18px;}.cls-44{stroke-width:0.18px;}.cls-45{stroke-width:0.18px;}.cls-46{stroke-width:0.18px;}.cls-47{stroke-width:0.18px;}.cls-48{stroke-width:0.18px;}.cls-49{stroke-width:0.18px;}.cls-50{stroke-width:0.18px;}.cls-51{font-size:6.5px;}.cls-52,.cls-53,.cls-61,.cls-62{fill:#ae2eff;}.cls-53{font-size:11.88px;}.cls-54{stroke-width:0.16px;}.cls-55{fill:#2d2d2d;}.cls-56{font-size:11.79px;}.cls-56,.cls-59,.cls-66{fill:#636363;}.cls-57{font-size:12.55px;}.cls-58{font-size:30.86px;}.cls-59,.cls-62{font-size:11.86px;}.cls-60{font-size:6.49px;}.cls-61{letter-spacing:0em;}.cls-63{font-size:9.13px;}.cls-64,.cls-68,.cls-69{fill:#ff60ff;}.cls-64{letter-spacing:0em;}.cls-65{fill:#ffe700;}.cls-66{font-size:11.87px;}.cls-67{font-size:9.19px;}.cls-69{letter-spacing:0em;}.cls-70{font-size:6.81px;}.cls-70,.cls-71{fill:#606060;}.cls-71{font-size:6.86px;}</style></defs><rect x="-1.45" y="-0.04" width="176.57" height="385.72"/><g class="cls-1"><path class="cls-2" d="M-4.29,245.15c9.18-13.74,22.94-27.83,46.18-33.37,8.19-2,17-2.7,25.63-3.91,28.38-4,56.05-14.22,66.63-30.22,3.86-5.83,5.27-12.09,7.39-18.23C147,143.54,158,127.76,178.16,116.7c18.94-10.4,45.06-16.19,60.33-28.51,7.76-6.26,12.06-13.73,16.26-21.07Q263.95,51,273.13,35"/><path class="cls-3" d="M-8.31,238.62C.93,225,14.78,211.06,38.17,205.57c8.24-1.93,17.15-2.67,25.8-3.86,28.56-3.94,56.42-14.09,67.07-29.93,3.89-5.78,5.31-12,7.44-18.06,5.53-15.73,16.59-31.35,36.87-42.31,19.06-10.3,45.35-16,60.72-28.23,7.81-6.2,12.14-13.6,16.37-20.87l18.5-31.84"/><path class="cls-4" d="M-12.34,232.09c9.31-13.47,23.25-27.28,46.79-32.72,8.3-1.92,17.26-2.65,26-3.83,28.75-3.9,56.79-13.95,67.51-29.64,3.91-5.71,5.34-11.86,7.49-17.88,5.56-15.57,16.7-31.05,37.11-41.89,19.18-10.2,45.65-15.89,61.12-28C241.51,72,245.87,64.7,250.12,57.5L268.75,26"/><path class="cls-5" d="M-16.36,225.57c9.36-13.34,23.39-27,47.1-32.41,8.34-1.89,17.36-2.62,26.13-3.79C85.81,185.51,114,175.56,124.82,160c3.94-5.66,5.38-11.75,7.54-17.71,5.6-15.42,16.81-30.74,37.35-41.48,19.31-10.1,45.95-15.73,61.52-27.69,7.91-6.07,12.3-13.33,16.58-20.46l18.75-31.22"/><path class="cls-6" d="M-20.39,219C-11,205.83,3.16,192.29,27,187c8.4-1.88,17.48-2.6,26.3-3.76,29.12-3.82,57.53-13.67,68.39-29,4-5.6,5.41-11.63,7.59-17.53,5.63-15.27,16.92-30.44,37.59-41.07,19.43-10,46.24-15.57,61.91-27.41,8-6,12.39-13.2,16.7-20.25L264.37,17"/><path class="cls-7" d="M-24.41,212.51C-14.92,199.44-.71,186,23.3,180.75c8.45-1.86,17.59-2.57,26.47-3.71,29.31-3.79,57.9-13.54,68.83-28.77,4-5.54,5.45-11.51,7.64-17.35,5.67-15.12,17-30.13,37.83-40.66,19.56-9.89,46.54-15.41,62.31-27.13,8-6,12.47-13.07,16.8-20.05l19-30.6"/><path class="cls-8" d="M-28.44,206c9.55-12.94,23.85-26.21,48-31.43,8.51-1.84,17.7-2.55,26.64-3.68,29.5-3.75,58.27-13.4,69.27-28.47,4-5.49,5.48-11.4,7.69-17.18,5.7-15,17.13-29.82,38.07-40.24,19.69-9.8,46.84-15.26,62.71-26.86,8.07-5.9,12.55-12.94,16.91-19.85L260,8"/><path class="cls-9" d="M-32.46,199.46c9.61-12.81,24-26,48.32-31.12,8.56-1.82,17.82-2.52,26.81-3.64,29.69-3.71,58.64-13.26,69.71-28.18,4-5.43,5.52-11.28,7.74-17,5.74-14.81,17.24-29.52,38.31-39.83,19.81-9.7,47.14-15.1,63.11-26.58,8.12-5.84,12.63-12.81,17-19.65l19.23-30"/><path class="cls-10" d="M-36.48,192.93c9.67-12.68,24.15-25.68,48.62-30.8,8.62-1.8,17.93-2.49,27-3.6,29.87-3.67,59-13.12,70.15-27.88,4.07-5.38,5.55-11.17,7.78-16.83,5.78-14.66,17.36-29.21,38.56-39.42,19.94-9.6,47.44-14.94,63.51-26.31,8.17-5.77,12.7-12.67,17.12-19.44Q245.93,13.82,255.6-1"/><path class="cls-11" d="M-40.51,186.4C-30.78,173.86-16.2,161,8.42,155.93c8.67-1.78,18-2.47,27.15-3.57,30.06-3.63,59.38-13,70.59-27.59,4.09-5.32,5.59-11,7.83-16.65,5.82-14.5,17.47-28.91,38.8-39,20.06-9.49,47.74-14.78,63.91-26,8.22-5.71,12.78-12.54,17.23-19.24L253.41-5.52"/><path class="cls-12" d="M-44.53,179.87c9.79-12.41,24.45-25.14,49.23-30.15C13.43,148,22.86,147.28,32,146.2c30.25-3.6,59.75-12.85,71-27.31,4.12-5.26,5.62-10.93,7.88-16.47,5.85-14.35,17.57-28.6,39-38.59,20.19-9.4,48-14.64,64.31-25.76,8.27-5.66,12.86-12.4,17.34-19l19.59-29"/><path class="cls-13" d="M-48.56,173.35C-38.7,161.07-23.95,148.47,1,143.52c8.78-1.75,18.27-2.42,27.49-3.49,30.44-3.55,60.12-12.71,71.47-27,4.14-5.21,5.66-10.82,7.93-16.3,5.89-14.2,17.68-28.3,39.28-38.18,20.32-9.3,48.33-14.48,64.71-25.48,8.32-5.6,12.94-12.27,17.44-18.84L249-14.51"/><path class="cls-14" d="M-52.58,166.82c9.91-12.15,24.76-24.6,49.84-29.51,8.84-1.72,18.38-2.38,27.66-3.45,30.62-3.51,60.49-12.57,71.92-26.72,4.16-5.15,5.68-10.7,8-16.12,5.92-14,17.79-28,39.52-37.77C164.77,44.06,193,38.93,209.44,28c8.37-5.53,13-12.13,17.55-18.63L246.83-19"/><path class="cls-15" d="M-56.61,160.29c10-12,24.92-24.33,50.15-29.18,8.89-1.71,18.5-2.36,27.83-3.42,30.81-3.47,60.86-12.43,72.36-26.42,4.18-5.1,5.72-10.58,8-16,6-13.89,17.9-27.69,39.76-37.36C162.08,38.87,190.44,33.8,207,23c8.42-5.47,13.1-12,17.66-18.42q10-14.07,20-28.12"/><path class="cls-16" d="M-60.63,153.76c10-11.88,25.06-24.06,50.45-28.86,9-1.69,18.61-2.33,28-3.37,31-3.44,61.23-12.3,72.8-26.14,4.21-5,5.75-10.46,8.07-15.77,6-13.74,18-27.38,40-36.94,20.69-9,49.23-14,65.91-24.66,8.47-5.41,13.18-11.87,17.76-18.22L242.45-28"/><path class="cls-17" d="M-64.65,147.24c10.09-11.75,25.21-23.8,50.75-28.54,9-1.67,18.72-2.31,28.17-3.34,31.19-3.4,61.6-12.16,73.24-25.85,4.23-5,5.79-10.34,8.12-15.59,6-13.58,18.11-27.07,40.25-36.53,20.81-8.9,49.52-13.85,66.29-24.38,8.53-5.36,13.27-11.74,17.88-18l20.2-27.5"/><path class="cls-18" d="M-68.68,140.71c10.16-11.62,25.37-23.53,51.07-28.22,9-1.65,18.82-2.28,28.33-3.3,31.37-3.36,62-12,73.68-25.55,4.26-4.93,5.82-10.23,8.16-15.42,6.07-13.43,18.23-26.77,40.5-36.12C154,23.31,182.87,18.41,199.75,8c8.58-5.29,13.34-11.6,18-17.81L238.06-37"/><path class="cls-19" d="M-72.7,134.18c10.21-11.48,25.51-23.26,51.37-27.89,9.1-1.64,18.94-2.26,28.5-3.27C38.73,99.7,69.51,91.14,81.29,77.76c4.29-4.87,5.86-10.11,8.21-15.24,6.11-13.28,18.34-26.46,40.74-35.71C151.3,18.12,180.35,13.28,197.33,3,206-2.25,210.75-8.49,215.42-14.63l20.45-26.88"/><path class="cls-20" d="M-76.73,127.65c10.28-11.35,25.67-23,51.68-27.57C-15.89,98.47-6,97.85,3.62,96.85c31.75-3.28,62.71-11.74,74.56-25,4.31-4.82,5.89-10,8.26-15.07,6.14-13.12,18.44-26.16,41-35.3C148.61,12.93,177.83,8.14,194.91-2c8.68-5.17,13.5-11.34,18.2-17.41L233.68-46"/><path class="cls-21" d="M-80.75,121.12c10.34-11.21,25.82-22.72,52-27.25,9.21-1.59,19.16-2.2,28.84-3.18C32,87.44,63.15,79.07,75.07,66c4.34-4.76,5.93-9.88,8.31-14.89,6.18-13,18.55-25.85,41.22-34.88C145.91,7.74,175.31,3,192.49-7c8.73-5.11,13.58-11.21,18.31-17.21L231.48-50.5"/><path class="cls-22" d="M-84.78,114.6c10.4-11.09,26-22.46,52.29-26.93,9.27-1.58,19.28-2.18,29-3.15C28.64,81.31,60,73,72,60.13c4.36-4.7,6-9.76,8.36-14.71C86.53,32.6,99,19.87,121.78,11c21.44-8.39,51-13.07,68.29-23,8.78-5,13.66-11.07,18.41-17Q218.89-42,229.29-55"/><path class="cls-23" d="M-88.8,108.07c10.46-10.95,26.12-22.19,52.59-26.61,9.32-1.55,19.39-2.15,29.18-3.11C25.28,75.18,56.79,67,68.85,54.26c4.39-4.65,6-9.65,8.41-14.54C83.51,27.06,96,14.48,119,5.66c21.56-8.29,51.31-12.91,68.69-22.73,8.83-5,13.74-10.94,18.52-16.8L227.1-59.5"/></g><path class="cls-24" d="M12.84,106.82c1.82,3,7.05,12.15,7.05,12.15l-5.1,2.88L33.54,124l7.28-16.3-5.36,2.88-5.21-7.7s-1.19-2.58-5.67-1.83L7.4,101.7A17.33,17.33,0,0,1,12.84,106.82Z"/><path class="cls-24" d="M13.61,112.26,3.77,128.83l-5.3-2.6V104.4A7.1,7.1,0,0,1,5,102.71C10.71,104.3,13.61,112.26,13.61,112.26Z"/><path class="cls-24" d="M40.29,149.59c-3.52,0-14-.29-14-.29l.24-5.89-11.63,15,10,14.78.37-6.11,9.23-.46s2.79.33,4.5-3.92l8.44-15.12A17.24,17.24,0,0,1,40.29,149.59Z"/><path class="cls-24" d="M48.51,134.28,41.4,120.63l-15,9.66,8.86,17.12s8.24,1.66,12.54-2.38S48.51,134.28,48.51,134.28Z"/><polygon class="cls-24" points="1.63 143.64 -1.53 141.56 -1.53 135.41 1.63 143.64"/><polygon class="cls-24" points="13.41 168.16 -1.53 167.35 -1.53 149.41 12.86 150.24 13.41 168.16"/><text class="cls-25" transform="translate(58.44 134.17) scale(0.99 1)">BRAIN<tspan x="0" y="21.99">RECYCLE</tspan></text><text class="cls-26" transform="translate(69.41 277.06) scale(0.99 1)">COMEÇAR</text><text class="cls-26" transform="translate(61.36 292.58) scale(0.99 1)">CONFIGURAÇÕES</text><text class="cls-27" transform="translate(75.5 317.26) scale(0.99 1)">CRÉDITOS</text><line class="cls-28" x1="73.84" y1="318.86" x2="99.66" y2="318.86"/><rect x="186.2" y="-0.46" width="176.66" height="385.91"/><g class="cls-1"><path class="cls-29" d="M194.06,420c7.68-13.74,19.18-27.84,38.61-33.39,6.84-1.95,14.24-2.7,21.42-3.9,23.73-4,46.87-14.23,55.71-30.24,3.23-5.83,4.41-12.1,6.18-18.24,4.59-15.89,13.78-31.68,30.62-42.74,15.83-10.41,37.67-16.2,50.43-28.53,6.49-6.26,10.09-13.73,13.6-21.08L426,209.72"/><path class="cls-30" d="M190.69,413.47c7.73-13.61,19.31-27.57,38.87-33.07,6.89-1.93,14.33-2.67,21.56-3.86,23.89-3.94,47.18-14.09,56.08-30,3.25-5.77,4.44-12,6.22-18.06,4.62-15.74,13.87-31.37,30.82-42.33C360.18,275.89,382.16,270.15,395,258c6.53-6.2,10.15-13.6,13.69-20.88q7.73-15.93,15.47-31.85"/><path class="cls-31" d="M187.33,406.94c7.78-13.48,19.43-27.3,39.12-32.74,6.93-1.92,14.43-2.65,21.71-3.84,24-3.9,47.48-13.95,56.44-29.65,3.27-5.72,4.47-11.87,6.26-17.88,4.65-15.59,14-31.07,31-41.92,16-10.21,38.16-15.89,51.1-28,6.57-6.14,10.22-13.47,13.77-20.68l15.57-31.54"/><path class="cls-32" d="M184,400.41c7.83-13.35,19.56-27,39.38-32.42,7-1.9,14.52-2.63,21.85-3.8,24.19-3.86,47.79-13.81,56.81-29.35,3.29-5.67,4.5-11.76,6.3-17.72,4.68-15.43,14.06-30.76,31.23-41.5,16.14-10.11,38.42-15.74,51.43-27.7,6.62-6.08,10.29-13.34,13.87-20.47q7.83-15.62,15.67-31.24"/><path class="cls-33" d="M180.6,393.88c7.88-13.21,19.69-26.77,39.63-32.1,7-1.88,14.61-2.6,22-3.76,24.35-3.82,48.1-13.67,57.18-29.06,3.31-5.61,4.53-11.64,6.34-17.54,4.72-15.28,14.15-30.45,31.43-41.09,16.25-10,38.67-15.58,51.77-27.42,6.65-6,10.35-13.21,13.95-20.27l15.78-30.93"/><path class="cls-34" d="M177.23,387.35c7.94-13.08,19.82-26.5,39.89-31.78,7.07-1.86,14.71-2.57,22.13-3.72,24.51-3.78,48.41-13.54,57.55-28.77,3.33-5.55,4.56-11.52,6.39-17.36,4.74-15.13,14.23-30.15,31.62-40.68,16.36-9.91,38.92-15.42,52.1-27.15,6.7-6,10.42-13.07,14-20.06l15.88-30.62"/><path class="cls-35" d="M173.87,380.81c8-12.94,19.94-26.22,40.14-31.45,7.12-1.84,14.8-2.54,22.27-3.68C261,341.93,285,332.28,294.2,317.2c3.36-5.5,4.58-11.41,6.43-17.18a70.64,70.64,0,0,1,31.83-40.27c16.46-9.8,39.16-15.27,52.43-26.87C391.63,227,395.38,219.94,399,213q8-15.17,16-30.31"/><path class="cls-36" d="M170.5,374.28c8-12.81,20.07-25.95,40.4-31.13,7.16-1.82,14.9-2.52,22.42-3.64,24.82-3.71,49-13.27,58.28-28.19,3.38-5.44,4.61-11.29,6.47-17a70.1,70.1,0,0,1,32-39.85c16.56-9.7,39.41-15.11,52.77-26.6,6.78-5.84,10.55-12.81,14.22-19.66l16.08-30"/><path class="cls-37" d="M167.14,367.75c8.09-12.68,20.19-25.69,40.65-30.81,7.21-1.8,15-2.49,22.56-3.6,25-3.67,49.34-13.13,58.65-27.9,3.4-5.38,4.64-11.17,6.51-16.83a69.64,69.64,0,0,1,32.23-39.44c16.67-9.6,39.66-14.95,53.1-26.32,6.83-5.78,10.62-12.68,14.32-19.46q8.08-14.83,16.18-29.68"/><path class="cls-38" d="M163.78,361.22c8.13-12.55,20.32-25.42,40.9-30.48,7.25-1.79,15.09-2.47,22.7-3.57,25.14-3.63,49.65-13,59-27.61,3.42-5.32,4.67-11.05,6.55-16.65a69.11,69.11,0,0,1,32.44-39c16.77-9.5,39.91-14.8,53.43-26,6.87-5.72,10.68-12.54,14.4-19.25l16.29-29.37"/><path class="cls-39" d="M160.41,354.69c8.19-12.41,20.45-25.15,41.16-30.16,7.3-1.77,15.18-2.44,22.84-3.53,25.29-3.6,50-12.86,59.39-27.32,3.44-5.27,4.7-10.93,6.59-16.48,4.89-14.36,14.69-28.62,32.64-38.61,16.88-9.4,40.16-14.64,53.76-25.77,6.92-5.66,10.76-12.41,14.5-19l16.38-29.06"/><path class="cls-40" d="M157.05,348.16c8.23-12.28,20.57-24.88,41.41-29.84,7.35-1.75,15.28-2.42,23-3.49,25.45-3.56,50.27-12.72,59.76-27,3.46-5.21,4.73-10.82,6.63-16.3,4.92-14.21,14.78-28.31,32.84-38.2,17-9.3,40.41-14.49,54.1-25.5,7-5.59,10.82-12.28,14.58-18.84l16.49-28.75"/><path class="cls-41" d="M153.68,341.63c8.29-12.15,20.7-24.62,41.67-29.52,7.39-1.73,15.37-2.39,23.13-3.45,25.6-3.52,50.57-12.58,60.12-26.74,3.48-5.15,4.76-10.7,6.67-16.12,5-14.05,14.87-28,33-37.79,17.09-9.2,40.66-14.33,54.44-25.22,7-5.54,10.88-12.15,14.67-18.64L404,155.71"/><path class="cls-42" d="M150.32,335.1c8.34-12,20.83-24.35,41.93-29.2,7.43-1.71,15.46-2.36,23.26-3.41C241.27,299,266.39,290,276,276.05c3.5-5.11,4.79-10.59,6.71-15.95,5-13.9,15-27.71,33.25-37.38,17.19-9.1,40.9-14.17,54.76-24.95,7-5.47,11-12,14.77-18.43l16.68-28.13"/><path class="cls-43" d="M147,328.57c8.39-11.89,21-24.08,42.19-28.88,7.47-1.69,15.55-2.33,23.4-3.38,25.92-3.44,51.2-12.3,60.86-26.14,3.53-5.05,4.82-10.47,6.75-15.78,5-13.74,15.06-27.39,33.45-37,17.3-9,41.15-14,55.1-24.67,7.08-5.42,11-11.88,14.85-18.23l16.79-27.82"/><path class="cls-44" d="M143.59,322c8.44-11.75,21.08-23.81,42.44-28.56,7.52-1.67,15.64-2.31,23.54-3.34,26.08-3.4,51.51-12.16,61.23-25.85,3.55-5,4.85-10.35,6.79-15.6,5.05-13.59,15.15-27.09,33.65-36.55,17.4-8.9,41.41-13.86,55.43-24.4,7.13-5.35,11.09-11.74,14.95-18l16.89-27.51"/><path class="cls-45" d="M140.22,315.51c8.5-11.62,21.21-23.54,42.7-28.23,7.56-1.66,15.74-2.29,23.68-3.31,26.24-3.36,51.82-12,61.6-25.56,3.57-4.93,4.87-10.24,6.83-15.42,5.08-13.44,15.24-26.79,33.86-36.14,17.5-8.8,41.65-13.7,55.76-24.12,7.17-5.3,11.15-11.62,15-17.83q8.51-13.59,17-27.2"/><path class="cls-46" d="M136.86,309c8.54-11.49,21.33-23.28,42.95-27.91,7.61-1.64,15.83-2.26,23.83-3.27,26.39-3.32,52.12-11.89,62-25.27,3.59-4.88,4.9-10.12,6.87-15.25,5.11-13.28,15.33-26.48,34.06-35.72,17.61-8.7,41.9-13.55,56.1-23.85,7.21-5.23,11.22-11.48,15.12-17.62q8.55-13.44,17.09-26.89"/><path class="cls-47" d="M133.5,302.44c8.59-11.35,21.46-23,43.2-27.58,7.66-1.62,15.93-2.23,24-3.23,26.54-3.28,52.43-11.75,62.33-25,3.61-4.82,4.93-10,6.91-15.07,5.14-13.13,15.42-26.17,34.26-35.32,17.72-8.59,42.15-13.38,56.43-23.56,7.26-5.18,11.29-11.35,15.22-17.42L393,128.7"/><path class="cls-48" d="M130.13,295.91c8.64-11.22,21.59-22.73,43.46-27.26,7.7-1.6,16-2.21,24.11-3.19,26.7-3.25,52.74-11.62,62.7-24.69,3.63-4.76,5-9.88,7-14.89,5.16-13,15.51-25.87,34.45-34.91,17.82-8.49,42.4-13.23,56.77-23.29,7.3-5.11,11.35-11.21,15.3-17.21l17.3-26.27"/><path class="cls-49" d="M126.77,289.38c8.69-11.09,21.71-22.46,43.71-26.94,7.75-1.58,16.12-2.18,24.25-3.15,26.86-3.21,53.05-11.48,63.07-24.4,3.65-4.7,5-9.76,7-14.71,5.19-12.83,15.6-25.57,34.66-34.5,17.92-8.39,42.64-13.07,57.09-23,7.35-5,11.42-11.09,15.4-17l17.4-26"/><path class="cls-50" d="M123.4,282.85c8.75-11,21.84-22.19,44-26.62,7.79-1.55,16.21-2.15,24.39-3.11,27-3.17,53.37-11.34,63.44-24.11,3.67-4.65,5-9.65,7-14.54,5.22-12.67,15.69-25.25,34.86-34.08,18-8.29,42.9-12.91,57.43-22.74,7.38-5,11.49-11,15.48-16.8l17.5-25.65"/></g><text class="cls-51" transform="translate(204.59 56.67) scale(0.99 1)">MENU<tspan class="cls-52" x="16.83" y="0"> </tspan><tspan class="cls-53" x="18.81" y="0">:</tspan></text><text class="cls-51" transform="translate(204.59 98.5) scale(0.99 1)">SOBRE</text><text class="cls-51" transform="translate(204.59 119.09) scale(0.99 1)">AVALIAR</text><text class="cls-51" transform="translate(204.59 139.69) scale(0.99 1)">TEMA ESCURO</text><text class="cls-51" transform="translate(204.59 160.28) scale(0.99 1)">NÍVEL</text><text class="cls-51" transform="translate(232.23 160.28) scale(0.99 1)"><tspan xml:space="preserve">&lt;   1   &gt;</tspan></text><rect class="cls-24" x="261.98" y="132.86" width="21.59" height="9.66" rx="4.79"/><ellipse cx="278.55" cy="137.7" rx="4.24" ry="4.28"/><polygon class="cls-24" points="244.97 113.04 246.01 115.16 248.33 115.5 246.65 117.15 247.04 119.48 244.97 118.38 242.9 119.48 243.29 117.15 241.61 115.5 243.93 115.16 244.97 113.04"/><polygon class="cls-24" points="253.76 113.04 254.8 115.16 257.12 115.5 255.44 117.15 255.84 119.48 253.76 118.38 251.69 119.48 252.09 117.15 250.41 115.5 252.73 115.16 253.76 113.04"/><polygon class="cls-24" points="262.56 113.04 263.6 115.16 265.91 115.5 264.24 117.15 264.63 119.48 262.56 118.38 260.48 119.48 260.88 117.15 259.2 115.5 261.52 115.16 262.56 113.04"/><polygon class="cls-24" points="271.35 113.04 272.39 115.16 274.71 115.5 273.03 117.15 273.43 119.48 271.35 118.38 269.28 119.48 269.67 117.15 268 115.5 270.31 115.16 271.35 113.04"/><polygon class="cls-24" points="280.14 113.04 281.18 115.16 283.5 115.5 281.82 117.15 282.22 119.48 280.14 118.38 278.07 119.48 278.47 117.15 276.79 115.5 279.11 115.16 280.14 113.04"/><line class="cls-54" x1="204.6" y1="99.24" x2="225.39" y2="99.28"/><rect x="377.84" y="1" width="176.87" height="382.98"/><rect class="cls-55" x="377.87" y="355.39" width="176.87" height="28.61"/><text class="cls-56" transform="translate(386.81 373.95)">Digite aqui...</text><rect x="968.19" y="-1.27" width="177.92" height="385.26"/><text class="cls-57" transform="translate(1023.54 43.5) scale(0.88 1)">Faça das 9 as <tspan x="26.72" y="15.06">seis:</tspan></text><text class="cls-58" transform="translate(1049.36 202.43)">9</text><rect class="cls-55" x="968.22" y="355.22" width="177.92" height="28.78"/><text class="cls-59" transform="translate(978.22 373.89)">Digite aqui...</text><text class="cls-60" transform="translate(978.03 22.89)">MENU<tspan class="cls-61" x="16.8" y="0"> </tspan><tspan class="cls-62" x="18.78" y="0">:</tspan></text><text class="cls-63" transform="translate(399.53 35.7)">use o comando <tspan class="cls-64" x="60.32" y="0">/select: quadrado</tspan><tspan x="127.24" y="0"> </tspan><tspan x="19.28" y="10.96">para selecionar o objeto</tspan></text><rect class="cls-65" x="435.1" y="128.21" width="64.77" height="64.77"/><rect x="571.09" y="-1.52" width="178.03" height="385.5"/><rect class="cls-55" x="571.12" y="355.2" width="178.03" height="28.8"/><text class="cls-66" transform="translate(581.13 373.89)">Digite aqui...</text><text class="cls-67" transform="translate(605.73 33.41)">use o comando <tspan class="cls-68" x="60.72" y="0">/rotate: 45</tspan><tspan x="102.47" y="0"> </tspan><tspan x="5.15" y="11.03">para rotacionar o objeto </tspan><tspan x="30.25" y="22.06">selecionado</tspan></text><rect class="cls-65" x="628.73" y="126.52" width="65.2" height="65.2"/><rect x="771.46" y="-1.52" width="178.03" height="385.5"/><rect class="cls-55" x="771.49" y="355.2" width="178.03" height="28.8"/><text class="cls-66" transform="translate(781.5 373.89)">Digite aqui...</text><text class="cls-67" transform="translate(827.67 33.41)">Está preparado?</text><text class="cls-67" transform="translate(809.59 83.04)">use o comando <tspan class="cls-69" x="60.72" y="0">/text: sim</tspan><tspan x="7.41" y="11.03">para dar sua resposta</tspan></text><text class="cls-70" transform="translate(527.59 16.3)">PULAR</text><text class="cls-71" transform="translate(722.65 13.85)">PULAR</text><text class="cls-71" transform="translate(919.72 13.96)">PULAR</text></svg>